<?xml version="1.0" standalone="no"?><svg xmlns="http://www.w3.org/2000/svg" viewBox="0 0 1440 320"><path fill="#0099ff" fill-opacity="1.5" d="M0,0L30,16C60,32,120,64,180,80C240,96,300,96,360,80C420,64,480,32,540,32C600,32,660,64,720,96C780,128,840,160,900,165.3C960,171,1020,149,1080,160C1140,171,1200,213,1260,224C1320,235,1380,213,1410,202.7L1440,192L1440,320L1410,320C1380,320,1320,320,1260,320C1200,320,1140,320,1080,320C1020,320,960,320,900,320C840,320,780,320,720,320C660,320,600,320,540,320C480,320,420,320,360,320C300,320,240,320,180,320C120,320,60,320,30,320L0,320Z"></path></svg>